<?xml version="1.0" encoding="UTF-8" standalone="no"?>
<!-- Generator: visioncortex VTracer 0.6.4 -->

<svg
   version="1.1"
   width="192.40538"
   height="192.18353"
   id="svg785"
   xmlns="http://www.w3.org/2000/svg"
   xmlns:svg="http://www.w3.org/2000/svg">
  <defs
     id="defs789" />
  <path
     d="m -163.71617,-458.0603 h 1024 v 1024 h -1024 z m 423,299 -2.05078,1.89062 c -19.53276,18.63246 -34.66962,46.91783 -35.94922,74.109377 2.31244,0.0269 4.62496,0.0463 6.9375,0.0625 l 3.90234,0.0352 c 3.02314,0.26767 3.02314,0.26767 4.16016,-1.09766 0.42006,-2.03682 0.81004,-4.07986 1.1875,-6.125 1.69178,-8.08111 4.47587,-15.340937 7.8125,-22.874997 l 1.37109,-3.12109 c 5.24226,-11.18252 12.4757,-21.55785 21.62891,-29.87895 l 2.375,-2.4375 2.625,-2.5625 1.78125,-1.76953 c 22.15328,-20.95469 52.77167,-27.9815 82.39062,-27.54297 25.00333,0.83206 50.31158,11.60672 68.82813,28.3125 l 2.53906,2.10937 c 18.81099,15.95731 30.45391,39.29529 34.91797,63.292967 0.27844,2.51562 0.27844,2.51562 1.54297,3.59766 2.35314,0.0727 4.70834,0.0837 7.0625,0.0625 l 3.91016,-0.0273 3.02734,-0.0352 c -0.73059,-30.751357 -20.18365,-59.278427 -41.56641,-79.867187 -20.70013,-19.27476 -50.17487,-31.96922 -78.43359,-33.13281 l -2.21582,-0.11475 c -37.58066,-1.75396 -70.62077,11.45283 -97.78418,37.11475 z m -171.000001,-2 c -1.7404,5.57956 -1.22468,11.58094 -1.24023,17.36938 -0.01,2.16179 -0.0406,4.32258 -0.0723,6.48414 -0.0903,11.50928 2.07528,21.10625 6.8125,31.58398 l 0.89453,2.06055 c 1.22425,2.75861 2.38915,5.235177 4.29688,7.587887 1.850421,2.70658 1.681231,4.84702 1.746091,8.10156 1.03158,18.43466 7.02178,35.95906 19.5625,49.8125 l 1.72266,2 c 7.33449,7.97295 17.1835,14.15877 27.27734,18 h 3 l 0.5,2.8125 c 2.84552,9.8299903 11.67929,19.1999003 20.38086,24.2871103 17.20748,9.4227597 33.26402,10.1597597 52.11377,4.7670897 3.01987,-0.90263 6.01534,-1.87002 9.00537,-2.8667 -1.12452,-2.9719397 -2.22294,-5.3344097 -4,-7.9999997 l -3.28906,0.83984 c -1.44528,0.36602 -2.8906,0.73189 -4.33594,1.09766 l -2.16016,0.55273 c -12.76407,3.22031 -26.17308,4.8974297 -38.21481,-1.49023 -7.00705,-4.33591003 -14.21934,-9.43867 -18,-17.0000003 l 3.90625,0.14062 c 17.29628,0.40791 34.01532,-1.70293 51.09375,-4.14062 -0.55729,-3.34373 -1.35174,-6.03313 -3,-9 l -1.69873,0.27539 c -11.6912,1.84113 -23.20571,3.02338 -35.05127,3.03711 l -3.20264,0.0156 c -18.06523,-0.15962 -32.3617,-5.61386 -45.79736,-17.8281 l -2.25,-2.5 -1.56641,-1.51953 c -9.64536,-9.9043 -14.41747,-23.03965 -16.43359,-36.48047 l 1.84375,1.46875 c 20.3499,15.56169 44.65733,22.05111 70.15625,21.53125 v -9 l -2.68359,-0.11328 c -24.29568,-1.28937 -47.51949,-6.12028 -65.31641,-23.88672 l -1.96875,-1.93359 c -9.78413,-10.320537 -16.326911,-26.785487 -16.343751,-41.066407 0.0776,-1.66811 0.17069,-3.33611 0.3125,-5 l 2.46484,2.08984 c 29.734931,24.62417 78.393141,37.459947 116.535161,35.91016 l 2,-8 c -7.01145,-1.36294 -14.02455,-2.43533 -21.10864,-3.34277 -32.78365,-4.22902 -68.76869,-10.41769 -93.89136,-33.65723 l -2.01172,-1.83984 c -3.736691,-3.57458 -6.833311,-7.44179 -9.824221,-11.65625 l -1.16406,-1.50391 z m 523.000001,0 c -1.17159,1.43772 -2.31099,2.90169 -3.4375,4.375 -29.66192,37.1428 -80.3059,42.07035 -124.5625,47.625 0.52268,2.76276 1.1087,5.32609 2,8 12.44535,-0.41281 24.39967,-1.7851 36.625,-4.125 l 2.48907,-0.46753 c 27.99726,-5.28401 58.99818,-12.63023 79.88593,-33.40747 0.48898,18.25537 -6.67572,35.98473 -18.65625,49.667967 -17.34118,17.25447 -43.95792,20.97836 -67.34375,22.33203 v 8 c 26.44888,0.67529 51.32787,-4.71037 72,-22 -5.94743,23.09489 -5.94743,23.09489 -12,31 l -1.92188,2.71484 c -9.54078,12.69204 -23.37861,20.81409 -38.93383,23.84082 -17.4916,2.47184 -35.8487,0.4093 -53.14429,-2.55566 l -3,8 c 6.40158,6.40158 26.30892,4.20235 34.92236,4.20874 7.02653,-0.0221 14.05205,-0.0932 21.07764,-0.20874 -7.88386,10.8438203 -16.4647,19.0457003 -30,22.0000003 -10.49561,0.94012 -20.17464,0.3351 -30.11719,-3.22266 -3.13227,-0.84461 -4.82615,-0.79444 -7.88281,0.22266 -2.47048,2.59889 -2.47048,2.59889 -3,5.9999997 2.41605,0.81437 4.8328,1.62655 7.25,2.4375 l 2.06641,0.69727 c 7.44926,2.49514 13.52638,3.07745 21.37109,3.11523 l 3.18555,0.0625 c 6.63622,0.03304 12.00598,-0.74228 18.12695,-3.3125 l 2.71484,-1.07031 c 9.94404,-4.7186197 20.67404,-13.45590973 25.1023,-23.84717 2.47603,-5.76918 5.02594,-7.71704 10.74536,-10.08252 1.446,-0.66607 2.88872,-1.33931 4.32812,-2.01953 l 2.13086,-1.00244 c 14.05406,-6.94726 24.04634,-19.75231 29.97852,-33.97803 l 1.17578,-2.73828 c 3.53903,-8.89261 4.69612,-17.9358 5.07422,-27.44922 0.39963,-5.44496 2.12419,-8.7554 5.125,-13.242187 11.20867,-17.72909 11.34051,-39.59943 7.625,-59.57031 z m -293,24 c -3.46088,3.6066 -6.6015,7.3952 -9.68457,11.32617 -1.8383,2.33916 -3.7345,4.62919 -5.62793,6.92383 l -2.17969,2.67578 c -3.13757,3.84622 -6.29041,7.67971 -9.44531,11.51172 l -1.66333,2.02246 -1.67651,2.03613 -1.73365,2.208257 c -1.98901,2.29565 -1.98901,2.29565 -4.62451,4.50341 -6.35009,5.89414 -7.95296,10.72242 -8.43648,19.39437 -0.11005,4.9901 -0.0792,9.9646 0.0429,14.95427 0.0919,3.89626 0.10254,7.7866 0.10132,11.68383 0.0246,2.48118 0.0537,4.96231 0.0879,7.44336 l 0.0169,3.51964 c 0.13268,6.4334 0.13268,6.4334 3.18309,11.94032 2.90147,2.0404 5.80086,3.92281 8.88989,5.66895 l 3.20312,1.83203 c 2.21314,1.43377 2.21314,1.43377 3.54686,1.35547 v -30 h 33 l -0.28125,10.54297 c -0.0624,3.37242 -0.11097,6.74477 -0.1582,10.11743 -0.0402,2.34274 -0.0948,4.68528 -0.16407,7.02734 -0.0971,3.36892 -0.14243,6.73517 -0.17773,10.1052303 l -0.12512,3.16972 c -0.058,5.31546997 -0.058,5.31546997 2.38904,9.84166 5.65175,4.06476 9.18038,3.19565 16.51733,3.19565 V -140.0603 c -12.91336,-1.16964 -12.91336,-1.16964 -25,3 z m 38,-3 V 7.9396973 c 10.96163,0 15.20792,-0.15334 23.875,-5.1875 l 2.93604,-1.61963 c 3.07766,-1.70607003 6.13245,-3.44925 9.18896,-5.19287 2.09229,-1.16278 4.18604,-2.32295 6.28125,-3.48047 C 409.57,-13.652333 409.57,-13.652333 420.32289,-20.193113 l 2.17041,-1.3794 c 2.59263,-2.15428 3.64057,-4.1572 4.01758,-7.50244 l -0.0317,-2.09473 -0.0151,-2.06152 -0.0553,-2.5791 -0.125,-8.25 h -19 l 0.11719,4.60937 c -0.33773,3.31647 -0.59669,4.87582 -2.99121,7.24415 -2.60236,1.64568 -5.2351,3.04377 -8.00098,4.39648 l -2.74219,1.44531 c -1.73202,0.9103 -3.47186,1.80603 -5.22217,2.68067 -4.76823,2.45005 -9.45436,5.05696 -14.16064,7.62402 V -116.0603 c 31.74076,17.192907 31.74076,17.192907 33,21.113277 v 8.88672 h 19 c 0.10817,-3.23007 0.18739,-6.4565 0.25,-9.6875 l 0.10156,-2.76367 0.0391,-2.685547 0.0635,-2.45972 c -0.64073,-3.39107 -2.05816,-4.9424 -4.45416,-7.40356 -2.88069,-1.96831 -2.88069,-1.96831 -6.17188,-3.67188 l -1.80372,-0.98181 c -1.91955,-1.04216 -3.84674,-2.06922 -5.7744,-3.09631 -1.32247,-0.71468 -2.64433,-1.43051 -3.96558,-2.14746 -2.59121,-1.40537 -5.18475,-2.80627 -7.78003,-4.2041 -4.30255,-2.33083 -8.56648,-4.72419 -12.81689,-7.14844 -2.22023,-1.26581 -4.44899,-2.51681 -6.6875,-3.75 l -1.73193,-1.11914 c -6.94595,-4.13462 -9.91039,-2.88086 -19.26807,-2.88086 z m -164,61.999997 v 11 l 8,1 -1,2 c -2.32157,0.40729 -4.65688,0.74439 -7,1 v 11 h 11 v -4 h 31 v -18 h -32 v -4 z m 306,0 v 4 h -32 v 18 h 32 v 4 h 10 v -10 l -4,-1 v -3 h 4 v -12 z m -277,31 c 2.99548,31.0781 22.12003,59.63072 45.22656,79.78516 14.17068,11.31658 30.37693,20.04191 47.77344,25.21484 l 1.94189,0.59424 c 32.76861,9.63597 68.68822,3.20637 98.33936,-12.49658 9.89281,-5.45695 18.56699,-12.28841 26.71875,-20.09766 l 2.23047,-2.03906 c 18.17446,-17.1772797 31.5889,-42.29525 35.76953,-66.96094 v -4 h -15 l -1.03125,4.03125 c -3.12149,11.78207 -6.91597,22.38479 -12.96875,32.96875 l -1.64453,2.9375003 C 433.72777,17.838587 409.25154,34.789607 381.67445,43.115477 c -10.36933,2.52066 -20.32281,3.22803 -30.95312,3.19922 l -2.28336,-0.002 c -11.48785,-0.03779 -22.19801,-0.70572 -33.15414,-4.373 l -1.91748,-0.6333 c -14.76941,-5.00817 -28.59593,-12.81329 -40.08252,-23.3667 l -1.46729,-1.33887 c -18.64883,-17.20601973 -29.84206,-39.00165 -35.53271,-63.66113 z M 0.28382874,286.9397 c -5.46072004,7.63115 -8.78021004,15.00552 -8.18331004,24.55599 l 3.33272,2.50758 -17.1494097,-0.0636 v 5 l 2.4375,-0.4375 c 4.17609,-0.65938 8.35848,-1.12341 12.5624997,-1.5625 v 4 H -21.716171 l 0.0164,3.02561 17.9835997,-0.0256 v 2 h -5 c 0.96537,13.03255 7.07249,23.33681 16.45703,32.36328 13.8238303,11.55977 28.0031503,13.9702 45.5429703,12.63672 13.78035,-2.34112 25.08578,-9.74754 33.9375,-20.3125 1.2401,-1.63722 7.97521,-16.19508 9.26447,-18.02075 0,0 24.863551,1.11997 24.994531,7.99452 0.13098,6.87455 -7.91955,7.17851 -12.7034,8.9268 -4.78384,1.74829 -19.618191,0.0946 -15.999661,1.56295 3.61854,1.46839 13.294891,3.50643 20.927701,1.07115 6.08047,-2.69838 8.49413,-5.88294 11.68579,-11.76026 l 0.89307,-1.46191 2.15537,-1.04462 c 8.12991,-2.37122 11.92003,-8.77787 15.86476,-15.9513 1.63894,-3.6681 2.46603,-10.70527 2.71198,-14.65894 0.30673,-3.98154 1.24783,-1.88613 3.31042,-5.28709 3.87941,-6.94504 2.07298,-15.30549 1.67118,-23.00218 l -0.71371,0.94413 -2.25,3.0625 c -11.25554,13.56719 -33.50115,15.30709 -49.750001,17.9375 l 0.66861,3.34768 c 15.653311,-1.51448 35.638811,-4.89305 47.772721,-14.97079 l 1.18121,-1.16953 c 0.14385,8.16335 -2.72139,16.53355 -8.99754,22.23014 -5.71497,4.71555 -12.44479,6.13386 -19.5625,7.25 l -2.36133,0.39258 c -1.89909,0.31457 -3.25737,0.91298 -5.15858,1.21452 l -3.74498,5.51173 0.019,-3.80633 H 94.283829 v -3 l 14.870671,1 -0.15393,-3.47205 -17.760691,-0.0828 -0.0916,-3.99609 5.86426,0.0719 c -1.57249,-13.92816 -8.46531,-25.31468 -18.89668,-34.41159 -24.81308,-19.11895 -58.02567,-13.72872 -77.83203026,9.89063 z m 308.00000126,-16 v 4 h 7 v 27 h -9 v 4 h 22 v -4 h -8 v -31 z m 53.0625,10.8125 c -1.93417,5.80251 -1.94334,10.8935 0.625,16.5 2.27234,4.05949 5.14502,6.60376 9.3125,8.6875 4.90416,0.53805 9.41636,0.84939 13.625,-2 l 2.375,-2 -1,-4 -2.5,1 c -4.30177,1.22908 -7.03201,1.49644 -11.5,1 -3.21955,-2.53454 -4.70432,-4.11297 -6,-8 -0.57279,-7.10263 -0.57279,-7.10263 1.875,-10.9375 2.59857,-2.52214 3.44058,-3.01881 7.0625,-3.25 3.0625,0.1875 3.0625,0.1875 6.0625,2.1875 0.6875,2.125 0.6875,2.125 1,4 h 4 v -11 l -2.875,0.0625 c -3.125,-0.0625 -3.125,-0.0625 -5.125,-1.0625 -8.38362,-0.99467 -12.24955,2.0074 -16.9375,8.8125 z m -176.0625,-7.8125 v 4 h 6 l -1.24219,2.96484 c -2.87287,6.95504 -5.45097,13.58618 -6.75781,21.03516 h -3 v 4 h 12 v -4 h -4 l 1,-6 h 12 l 1,6 h -3 v 4 h 12 v -4 h -3 l -0.44531,-1.80859 c -2.30776,-8.92598 -5.41768,-17.53164 -8.55469,-26.19141 z m -250.369371,6.12447 c -0.531441,10.11214 0.796807,16.69671 5.33484,25.77278 0.52569,1.50176 0.53206,3.20076 0.58163,4.65959 0.71064,7.77188 4.07981,14.20546 8.94089,20.21784 2.80144,2.20113 8.97877,7.13952 12.31095,7.23919 0.69134,2.48552 1.32269,4.07504 3.75465,7.16313 4.54138,5.18061 9.83036,6.82288 15.625,8.5 5.22181,-0.26057 9.3242697,-1.2736 14.2913597,-2.80756 l -2.47629,-3.20789 -6.3689997,1.43458 c -8.50982,1.51224 -11.0774,0.84513 -16.9198,-4.22156 -1.01629,-0.98344 -2.59646,-2.93319 -3.39619,-4.04063 l 3.48994,0.10661 c 6.85523,-0.37559 12.24154,-0.57233 19.24445,-1.72949 l -1.52277,-3.42114 -1.0752,0.14815 c -3.41327,0.0837 -6.54662,0.80509 -9.96053,0.85626 l -3.63428,0.12146 c -8.28188,0.0931 -13.71967,-1.37003 -20.05731,-6.8103 -4.08557,-4.88083 -8.62938,-10.91338 -8.62938,-17.55285 l 2.63058,2.14052 c 8.91319,5.33956 16.98266,7.69182 27.20583,7.30684 l -1.58687,-3.8057 -2.46694,-0.10739 c -9.80893,-1.05859 -18.37254,-2.85224 -25.38369,-10.46191 -4.26608,-5.58337 -7.12906,-12.49423 -6.29688,-19.40312 l 2.85476,2.29258 c 12.80602,9.36278 30.65595,14.37383 46.42197,13.52922 l 0.45765,-3.04368 -2.18042,-0.37964 c -39.82613,-7.02926 -39.82613,-7.02926 -49.81958,-20.62036 z m 310.369371,6.87553 c -1.86233,3.72467 -1.57131,7.94495 -1,12 1.67207,3.12578 3.78562,5.39281 7,7 5.60703,0.21378 5.60703,0.21378 11,-1 l -2,6 -10,1 -1,4 c 1.7104,1.7104 3.85094,1.29302 6.1875,1.375 l 2.85547,0.14844 c 3.16646,-0.56051 5.37105,-1.42785 7.76782,-3.62012 2.69567,-4.31439 2.07525,-9.79087 2.06421,-14.71582 l 0.0625,-3.54492 c 0.0471,-2.88157 0.067,-5.7607 0.0625,-8.64258 l 3,-1 v -4 l -2.11719,0.0352 -2.75781,0.0273 -2.74219,0.0352 c -2.38281,-0.0977 -2.38281,-0.0977 -4.38281,-1.0977 -6.62707,-0.9096 -9.69725,1.3083 -14,6 z m 33,-2 c -2.38714,2.94414 -2.96193,4.65101 -3.375,8.4375 0.50556,4.80284 1.76108,8.09988 5.375,11.375 4.4746,2.6568 8.94217,2.7036 14,2.1875 3.45346,-1.34747 3.45346,-1.34747 6,-3 l -1,-4 -2.5,0.5 c -4.04327,0.57761 -7.41538,0.8294 -11.5,0.5 l -4,-4 19,-1 c 0.82174,-7.55846 0.82174,-7.55846 -2.25,-10.875 -6.82866,-5.27669 -12.76668,-5.99734 -19.75,-0.125 z m 113.125,2.3125 c -1.92621,4.6015 -1.64364,8.21801 0,12.875 2.28323,3.42484 4.19327,4.97163 7.875,6.8125 5.22031,0.65254 8.57264,-0.18259 13,-3 2.93667,-3.24046 3.89954,-5.93515 4.3125,-10.3125 -0.37681,-4.44636 -1.41023,-6.32698 -4.3125,-9.6875 -7.81606,-5.2107 -14.99522,-3.93923 -20.875,3.3125 z m 86.5,0.5625 c -1.29067,4.38827 -1.01181,8.02905 0.5,12.3125 2.28323,3.42484 4.19327,4.97163 7.875,6.8125 5.18924,0.64865 8.68267,-0.0258 13,-3 2.777,-3.32724 3.89819,-6.27457 4.5,-10.5625 -0.61,-4.19377 -1.73519,-6.23614 -4.5,-9.4375 -3.90241,-2.66073 -7.38112,-3.60034 -12.03906,-3.42188 -4.24695,0.91369 -6.81941,3.86525 -9.33594,7.29688 z m -254.52344,-6.37109 c -2.35266,0.55536 -4.43773,0.59409 -6.85156,0.55859 l -2.42188,-0.0273 -1.82812,-0.0352 v 4 h 4 v 16 h -3 v 4 c 1.76949,0.10815 3.54087,0.18566 5.3125,0.25 l 2.98828,0.14062 c 2.84326,-0.12159 2.84326,-0.12159 4.55469,-2.40625 l 1.14453,-1.98437 1,4 h 12 l -1,-5 h -2 l 0.14062,-2.88672 0.10938,-3.80078 0.14062,-3.76172 c -0.45329,-4.12045 -1.49313,-5.65866 -4.39062,-8.55078 -3.15145,-1.57572 -6.51689,-1.39367 -9.89844,-0.49609 z m 207.89844,2.49609 v -2 h -9 l 1,5 h 3 v 15 h -5 v 4 h 20 v -4 l -9,-1 c -0.77179,-8.98703 -0.77179,-8.98703 2,-12.625 3.97237,-1.82067 6.65959,-1.66927 11,-1.375 -0.37904,-3.29076 -0.37904,-3.29076 -2,-6 -4.86186,-0.45227 -7.79325,0.59614 -12,3 z m 19,-2 v 8 l 5,1 v -5 l 8,1 -2.33594,2.51953 c -1.01313,1.09756 -2.02614,2.19522 -3.03906,3.29297 l -1.53906,1.6582 c -4.85286,4.96898 -4.85286,4.96898 -6.08594,11.5293 h 22 v -9 h -4 v 5 h -10 l 1.82812,-2.23047 2.42188,-2.95703 2.39062,-2.91797 2.35938,-2.89453 2.29687,-2.61328 c 2.09037,-2.44071 2.09037,-2.44071 1.70313,-6.38672 z m -230,43 v 3 h 4 v 16 h -5 v 3 h 14 v -3 h -5 v -19 z m 18,0 v 3 h 4 v 16 h -5 v 3 h 14 l -1,-3 h -4 v -19 z m 107,0 v 3 h 2 v 17 h -2 v 2 h 6 l -1,-6 3,1 c 1.1875,2.5625 1.1875,2.5625 2,5 h 7 v -3 l -2.4375,-0.75 c -2.5625,-1.25 -2.5625,-1.25 -3.375,-3.375 l -0.1875,-1.875 2.5,-1.3125 2.5,-1.6875 v -3 h -8 l -1,5 -1,-12 z m 115,0 v 3 h 4 v 17 h -5 v 2 h 13 v -3 h -5 v -19 z m -186.80078,2.29297 c -1.84017,2.61939 -1.5879,4.5976 -1.19922,7.70703 0.95549,1.95626 0.95549,1.95626 3,3 3.61023,0.73042 3.61023,0.73042 7,1 v 5 c -2.875,0.1875 -2.875,0.1875 -6,0 l -2,-3 h -3 v 6 c 6.74894,1.2967 6.74894,1.2967 13.125,-0.625 2.03781,-2.2256 2.03781,-2.2256 2.4375,-4.9375 -0.3611,-2.51763 -0.3611,-2.51763 -2.1875,-4.125 -2.71357,-1.49961 -5.40623,-2.43536 -8.375,-3.3125 v -4 c 2.375,-0.1875 2.375,-0.1875 5,0 l 2,3 h 2 v -6 c -1.60116,-0.24934 -3.2062,-0.47379 -4.8125,-0.6875 l -2.70703,-0.38672 c -2.51382,-0.15595 -2.51382,-0.15595 -4.28125,1.36719 z m -92.19922,-0.29297 v 2 l 2,1 c 0.31241,2.54941 0.51303,5.00362 0.625,7.5625 l 0.11719,2.1543 c 0.0945,1.76062 0.17727,3.52188 0.25781,5.2832 h -3 v 2 h 10 v -3 h -4 v -5 l 5,1 v -7 l -5,3 v -6 h 8 v 3 h 2 v -6 z m 112,0 v 5 h -3 v 3 h 3 l -0.0703,2.11719 -0.0547,2.75781 -0.0703,2.74219 c -0.0479,2.57088 -0.0479,2.57088 2.19531,4.38281 2.68839,0.26992 5.29142,0.0874 8,0 l 1,-3 h -8 v -9 h 7 v -3 h -7 v -5 z m 87,0 v 2 h 2 l -1,18 c 7.42769,0.61355 7.42769,0.61355 14.125,-1.875 2.9208,-3.31024 3.20822,-5.65826 3.16797,-10.08594 -0.45552,-3.17041 -2.04613,-4.8583 -4.29297,-7.03906 -2.76452,-1.38226 -5.04614,-1.09525 -8.125,-1.0625 l -3.32031,0.0273 z m -180,4 c 0,3.09202 0.10896,6.05182 0.375,9.125 l 0.21094,2.63281 c 0.23095,2.43704 0.23095,2.43704 2.41406,4.24219 3.12815,0.2436 3.12815,0.2436 6.625,0.125 l 3.60156,-0.0547 2.77344,-0.0703 v -3 h -2 v -12 h -6 v 2 l -2,-2 v -1 z m 110,1 -1,3 h 9 v 2 l -2.75,-0.1875 c -3.57875,0.20647 -4.87131,0.53434 -7.25,3.1875 -0.50015,2.54258 -0.50015,2.54258 0,5 1.91407,2.35642 1.91407,2.35642 5.25781,2.19531 l 3.86719,-0.0703 3.88281,-0.0547 2.99219,-0.0703 v -3 h -2 l 0.10547,-1.86328 0.082,-2.44922 0.10547,-2.42578 c -0.12454,-2.30475 -0.12454,-2.30475 -1.51172,-4.04297 -2.30262,-1.57548 -3.70524,-1.5264 -6.46875,-1.40625 l -2.44922,0.082 z m 18.3125,1.5625 c -1.85815,3.45085 -1.92262,5.57338 -1.3125,9.4375 1.97966,3.06308 1.97966,3.06308 5,5 3.97749,0.56821 6.5846,0.10179 10,-2 v -3 l -1.89844,0.28906 -2.47656,0.33594 -2.46094,0.35156 -2.16406,0.0234 c -2,-2 -2,-2 -2.1875,-4.5625 0.1875,-2.4375 0.1875,-2.4375 1.1875,-3.4375 1.99958,-0.0408 4.00045,-0.0425 6,0 l 1,2 3,-1 v -5 c -7.12319,-0.62432 -7.12319,-0.62432 -13.6875,1.5625 z m 73.1875,0 c -2.11007,3.42886 -2.12492,5.4797 -1.5,9.4375 1.91667,3.08333 1.91667,3.08333 5,5 4.27606,0.52513 7.33756,0.34396 11,-2 l -1,-3 -3.8125,0.6875 c -2.14453,0.38672 -2.14453,0.38672 -4.1875,0.3125 l -3,-3 h 12 c 0.6247,-5.61933 0.6247,-5.61933 -1.5,-7.875 -4.52021,-2.03409 -8.74821,-2.21987 -13,0.4375 z m 17.5,-1.5625 v 3 h 2 l 0.58594,1.86328 0.78906,2.44922 0.77344,2.42578 c 0.83988,2.48897 0.83988,2.48897 2.85156,5.26172 h 4 c 0.67087,-1.62327 1.33657,-3.24868 2,-4.875 l 1.125,-2.74219 c 0.9899,-2.27265 0.9899,-2.27265 0.875,-4.38281 h 2 v -3 h -7 l -1,9 c -2,-3 -2,-3 -3,-6 l 1,-3 z m 20.4375,2.0625 c -1.90201,3.88672 -1.70814,5.82662 -0.4375,9.9375 1.87195,2.69789 1.87195,2.69789 5,4 3.07918,0.0206 5.98546,-0.39578 9,-1 l 1,-3 -2.37109,-0.14844 -3.06641,-0.22656 -3.05859,-0.21094 -2.50391,-0.41406 -1,-2 h 12 c 0.6247,-5.61933 0.6247,-5.61933 -1.5,-7.875 -4.77163,-2.14723 -8.906,-2.40798 -13.0625,0.9375 z m 37.5,-0.5625 c -1.34453,3.58541 -1.74682,6.7309 -0.9375,10.5 1.91182,2.74613 1.91182,2.74613 5,4 4.26439,0.0748 6.23718,-0.3516 9.5,-3.125 1.97798,-3.79113 1.63112,-5.80298 0.5,-9.875 -1.62477,-2.14152 -2.49951,-2.89936 -5.15625,-3.43359 -4.7607,-0.0965 -4.7607,-0.0965 -8.90625,1.93359 z m 17.0625,-1.5 v 3 h 2 v 17 h -2 v 2 h 10 v -3 h -5 l 1,-4 3.25,0.25 c 3.70414,0.0559 3.70414,0.0559 6.1875,-1.8125 2.16646,-3.37968 2.12538,-5.49734 1.5625,-9.4375 -1.5399,-2.3324 -1.5399,-2.3324 -4,-4 -3.274,-0.48264 -3.274,-0.48264 -6.75,-0.25 l -3.54688,0.10937 z m 21.5,1.5625 c -2.08393,3.38638 -2.05802,5.53135 -1.5,9.4375 1.22435,2.64238 1.22435,2.64238 4,4 4.04232,0.45639 8.29696,0.85152 12,-1 v -2 l -2.37109,-0.18359 -3.06641,-0.25391 -3.05859,-0.24609 c -2.50391,-0.31641 -2.50391,-0.31641 -3.50391,-1.31641 l 11,-1 c 1.53766,-4.72325 1.53766,-4.72325 -0.4375,-7.3125 -4.34896,-2.86395 -8.64373,-2.88673 -13.0625,-0.125 z m 18.5,-1.5625 v 3 h 3 v 9 h -3 v 3 h 12 l -1,-3 h -5 l 1,-7 7,-1 v -4 z m 150.58203,78.45703 c -10.26623,12.23088 -13.5824,24.77149 -12.58203,40.54297 0.61022,3.55168 1.60251,6.6845 3,10 l 0.99609,2.47656 c 5.48153,12.25284 15.67773,21.4573 27.81641,26.96094 5.52679,1.83174 10.9797,1.94796 16.75,2 l 2.64966,0.031 c 13.16852,-0.17654 24.29428,-5.56461 33.90893,-14.44117 9.98824,-10.77733 13.55555,-23.60995 13.41773,-38 -0.48109,-12.01879 -5.43788,-22.19745 -13.53882,-31.02733 -11.95133,-10.4861 -24.4176,-14.59937 -40.16406,-14.30078 -12.71396,0.99692 -23.39279,6.75354 -32.25391,15.75781 z m 118.41797,75.54297 45.0527,32.68652 c -5.0219,10.88535 -4.2216,17.43215 -15.43332,21.6106 l 0.99854,7.68168 -6.36084,-3.742 c 10.88532,5.022 -21.75608,-14.40727 -17.57764,-3.19554 l -4.69409,-4.88892 3.52246,3.61036 c 5.02195,-10.88535 8.28046,-24.58426 19.49219,-28.7627 v -2 l -2.37891,-1.03125 c -10.88534,-5.02195 -33.4319,30.53106 -20.62109,-21.96875 z"
     fill="#1e2331"
     id="path585"
     style="fill:#1e2331;fill-opacity:0" />
  <g
     id="layer1"
     transform="translate(-651.70836,-500.26343)">
    <g
       id="g3484"
       transform="translate(-23.762351,180.34126)">
      <ellipse
         style="fill:#000000;fill-opacity:0;stroke:#e8e5d4;stroke-width:13.8698;stroke-dasharray:none;stroke-opacity:1"
         id="path1143"
         cx="771.6734"
         cy="416.01395"
         rx="89.267792"
         ry="89.156883" />
      <g
         id="g1150"
         transform="translate(-5.2111386,67.98855)">
        <path
           d="m 772.01756,296.57018 c 0,33.99169 0,67.98338 0,103.00513 -9.15558,0 -9.15558,0 -12.5249,-2.22411 -2.34842,-2.62311 -1.85576,-5.82248 -1.71671,-9.05567 0.009,-0.75203 0.0172,-1.50406 0.026,-2.27888 0.0339,-2.39802 0.11002,-4.79312 0.18726,-7.19026 0.0304,-1.62709 0.0581,-3.25422 0.0829,-4.88138 0.0617,-3.98624 0.18034,-7.96619 0.29621,-11.95265 -8.25777,0 -16.51553,0 -25.02352,0 0,6.8902 0,13.78041 0,20.87941 -12.51176,-6.26382 -12.51176,-6.26382 -13.6492,-8.35176 -0.53597,-5.36506 -0.49817,-10.79975 -0.5987,-16.18342 -0.0428,-1.80998 -0.1047,-3.61967 -0.18661,-5.42851 -0.73949,-16.64792 -0.73949,-16.64792 4.20185,-22.2869 1.66769,-1.62884 3.40531,-3.12558 5.26738,-4.56516 1.69581,-1.37336 3.03116,-2.95664 4.39656,-4.60453 2.52392,-2.93652 5.08195,-5.84303 7.68063,-8.72423 1.55734,-1.73587 3.06474,-3.50379 4.56751,-5.27966 0.92506,-1.07395 1.85021,-2.14782 2.77545,-3.22163 0.64312,-0.77524 0.64312,-0.77524 1.29924,-1.56613 6.46727,-7.43307 12.05972,-6.08966 22.9186,-6.08966 z m -14.40748,16.70353 c -4.02687,3.73552 -7.56169,7.90712 -11.03721,12.07517 -1.94555,2.32179 -3.94836,4.54823 -6.09537,6.71631 -0.68005,0.7071 -0.68005,0.7071 -1.37385,1.42849 -0.87305,0.90386 -1.76462,1.79306 -2.67733,2.66328 -4.36777,4.59977 -3.08147,6.20208 -3.08147,13.30774 8.25776,0 16.51552,0 25.02352,0 0,-11.94302 0,-23.88605 0,-36.19099 -0.25024,0 -0.50047,0 -0.75829,0 z"
           fill="#eae6d4"
           id="path587-9"
           style="stroke-width:0.726467" />
        <path
           d="m 781.87532,296.57018 c 8.33967,0 11.59208,0.13623 18.19892,3.6539 0.73916,0.37378 1.47832,0.74756 2.23988,1.13267 2.29894,1.16931 4.57963,2.36503 6.85959,3.5652 1.46565,0.75672 2.93186,1.51254 4.39866,2.26737 3.24564,1.67993 6.48228,3.37243 9.69669,5.10227 1.29191,0.69383 2.58966,1.37854 3.89141,2.05668 0.67508,0.35774 1.35015,0.71549 2.04568,1.08407 0.91666,0.47993 0.91666,0.47993 1.85184,0.96955 1.78145,1.15023 2.80216,2.10423 3.89753,3.83163 0.25825,1.59382 0.25825,1.59382 0.22215,3.31678 -0.007,0.61904 -0.0147,1.23809 -0.0222,1.87589 -0.0191,0.64057 -0.0381,1.28115 -0.0578,1.94113 -0.0154,0.97701 -0.0154,0.97701 -0.0311,1.97376 -0.0267,1.60419 -0.0675,3.20817 -0.11107,4.81205 -4.75447,0 -9.50894,0 -14.40749,0 0.0293,-1.28653 0.0586,-2.57306 0.0889,-3.89858 -0.29229,-3.25676 -0.29229,-3.25676 -2.2682,-5.85806 -1.96885,-1.16526 -3.94809,-2.11537 -6.06705,-3.032 -0.6862,-0.32567 -1.37239,-0.65134 -2.07937,-0.98688 -1.31204,-0.62093 -2.63123,-1.22945 -3.95991,-1.81981 -3.62702,-1.6771 -7.17247,-3.49913 -10.73786,-5.28409 0,22.96736 0,45.93472 0,69.59806 11.54713,-4.56013 11.54713,-4.56013 25.02352,-14.38994 0,-0.60559 0,-1.21117 0,-1.8351 0,-1.0766 0,-2.15319 0,-3.26241 4.75447,0 9.50894,0 14.40749,0 0.0469,1.88045 0.0938,3.7609 0.14217,5.69834 0.0207,0.58601 0.0414,1.17203 0.0628,1.7758 0.006,0.47174 0.0114,0.94348 0.0172,1.42952 0.0119,0.47745 0.0238,0.95491 0.0361,1.44684 -0.51145,2.93331 -1.98091,4.58305 -4.53843,6.33383 -0.79274,0.4289 -1.58548,0.8578 -2.40224,1.29969 -0.43308,0.23601 -0.86617,0.47202 -1.31238,0.71518 -4.83942,2.61138 -9.79035,5.03821 -14.75386,7.44357 -0.8947,0.43607 -1.78925,0.87242 -2.68363,1.30904 -1.77193,0.86455 -3.54718,1.72338 -5.32579,2.57628 -1.73163,0.85766 -3.43917,1.7577 -5.11845,2.69897 -0.81326,0.446 -1.62653,0.892 -2.46444,1.35151 -0.70476,0.40547 -1.40953,0.81093 -2.13565,1.22868 -2.74583,0.88374 -2.74583,0.88374 -12.60358,0.88374 0,-33.99169 0,-67.98339 0,-103.00513 z"
           fill="#e9e6d5"
           id="path595-0"
           style="stroke-width:0.726467" />
      </g>
    </g>
  </g>
</svg>
